<?xml version="1.0" standalone="no"?>
<!DOCTYPE svg PUBLIC "-//W3C//DTD SVG 20010904//EN"
 "http://www.w3.org/TR/2001/REC-SVG-20010904/DTD/svg10.dtd">
<svg version="1.0" xmlns="http://www.w3.org/2000/svg"
 width="972.000000pt" height="1280.000000pt" viewBox="0 0 972.000000 1280.000000"
 preserveAspectRatio="xMidYMid meet">
<metadata>
Created by potrace 1.15, written by Peter Selinger 2001-2017
</metadata>
<g transform="translate(0.000000,1280.000000) scale(0.100000,-0.100000)"
fill="#000000" stroke="none">
<path d="M4645 12794 c-22 -2 -83 -9 -135 -15 -1004 -112 -1884 -696 -2378
-1579 -182 -327 -299 -669 -364 -1065 l-22 -140 -6 -1800 -5 -1800 -375 -5
-375 -5 0 -3190 0 -3190 3880 0 3880 0 0 3190 0 3190 -380 5 -380 5 -5 1800
-6 1800 -22 140 c-107 666 -394 1246 -845 1712 -500 516 -1118 826 -1852 928
-104 15 -523 28 -610 19z m478 -879 c495 -58 943 -269 1298 -612 135 -131 214
-224 311 -369 183 -270 301 -572 360 -919 l22 -130 3 -1747 4 -1748 -2261 0
-2261 0 4 1748 3 1747 23 133 c57 340 178 648 359 916 97 145 176 238 308 366
486 469 1153 694 1827 615z"/>
</g>
</svg>
